<?xml version="1.0" encoding="UTF-8"?>
<svg xmlns="http://www.w3.org/2000/svg" xmlns:xlink="http://www.w3.org/1999/xlink" id="Layer_1" x="0px" y="0px" viewBox="0 0 340.3 156.8" style="enable-background:new 0 0 340.3 156.8;" xml:space="preserve">
  <style type="text/css">	.st0{fill:#CD2420;}	.st1{fill:#FFFFFF;}	.st2{fill:none;stroke:#CD2420;stroke-width:6.4156;stroke-linecap:round;stroke-miterlimit:2.8514;}	.st3{fill:none;stroke:#CD2420;stroke-width:2.8514;stroke-miterlimit:2.8514;}	.st4{fill:none;stroke:#CD2420;stroke-width:6.416;stroke-linecap:round;stroke-miterlimit:2.8514;}	.st5{fill:none;stroke:#CD2420;stroke-width:7;stroke-linecap:round;stroke-miterlimit:10;}</style>
  <g>	<circle class="st0" cx="57.5" cy="122.9" r="2.7"></circle>	<circle class="st0" cx="66.6" cy="122.9" r="2.7"></circle>	<circle class="st0" cx="57.5" cy="132.7" r="2.7"></circle>	<circle class="st0" cx="66.6" cy="132.7" r="2.7"></circle>	<circle class="st0" cx="57.5" cy="142.1" r="2.7"></circle>	<circle class="st0" cx="66.6" cy="142.1" r="2.7"></circle>	<circle class="st0" cx="76" cy="123" r="2.7"></circle>	<circle class="st0" cx="76" cy="132.7" r="2.7"></circle>	<circle class="st0" cx="76" cy="142.2" r="2.7"></circle></g>
  <g>	<g transform="translate(53.09246, 240.135228)">		<g>			<path class="st1" d="M-15.9-93.6v-29.9l-8.9,39.2h-10.9l-9-39.7v30.4l0.6,9.3h-9l0.6-9.3v-28.2l-0.4-9h15.6l7.8,36.5l7.8-36.5     h15.2l-0.4,9v28.2l0.7,9.3h-10.4L-15.9-93.6z"></path>		</g>	</g></g>
  <g>	<g transform="translate(93.913552, 240.135228)">		<g>			<path class="st1" d="M-22.7-83.3c-6,0-10.6-2.1-13.6-6.2c-3-4.2-4.5-10.2-4.5-18.2c0-7.9,1.5-13.9,4.5-18c3-4.1,7.5-6.1,13.6-6.1     s10.6,2,13.6,6.1c3,4.1,4.5,10.1,4.5,18c0,8-1.5,14.1-4.5,18.2C-12.2-85.4-16.7-83.3-22.7-83.3z M-22.7-92.1c2.2,0,4-0.5,5.3-1.5     c1.3-1,2.2-2.6,2.7-4.8c0.6-2.3,0.8-5.4,0.8-9.4c0-3.9-0.3-6.9-0.8-9.1c-0.6-2.2-1.5-3.8-2.8-4.8c-1.3-1-3-1.5-5.2-1.5     c-2.2,0-3.9,0.5-5.2,1.5c-1.3,1-2.2,2.6-2.8,4.8c-0.6,2.2-0.8,5.2-0.8,9.1c0,4,0.3,7.2,0.8,9.4c0.6,2.3,1.5,3.9,2.7,4.8     C-26.7-92.5-25-92.1-22.7-92.1z"></path>		</g>	</g></g>
  <g>	<g transform="translate(124.634104, 240.135228)">		<g>			<path class="st1" d="M3.5-130.8l-0.6,9v20.3c0,6.3-1.3,10.9-3.9,13.9c-2.6,2.9-6.7,4.4-12.3,4.4c-5.5,0-9.6-1.5-12.3-4.4     c-2.6-2.9-3.9-7.6-3.9-13.9v-20.3l-0.6-9H-20l-0.6,9v20.3c0,3.4,0.5,5.9,1.6,7.3c1.1,1.4,3,2.2,5.6,2.2c2.7,0,4.5-0.7,5.6-2.2     c1.1-1.5,1.6-3.9,1.6-7.3v-20.3l-0.6-9H3.5z"></path>		</g>	</g></g>
  <g>	<g transform="translate(154.051356, 240.135228)">		<g>			<path class="st1" d="M14.2-93.6l0.6,9.3H0.7l-11.9-36.8v27.4l0.6,9.3h-8.9l0.6-9.3v-28.2l-0.6-9h14.1L6.5-94.3v-27.5l-0.6-9h8.9     l-0.6,9V-93.6z"></path>		</g>	</g></g>
  <g>	<g transform="translate(185.330464, 240.135228)">		<g>			<path class="st1" d="M20.8-122l-0.7,0.2l-5.6-0.8H8.8v29l0.6,9.3H-0.8l0.6-9.3v-29h-5.7l-5.6,0.8l-0.7-0.2l1.4-8.8h30.2L20.8-122     z"></path>		</g>	</g></g>
  <g>	<g transform="translate(210.930922, 240.135228)">		<g>			<path class="st1" d="M35.5-84.3H24.6l-1.4-9.3v-0.1L7.3-93.6l-1.4,9.3h-9.6l3-9.3L7-121.5l1.9-9.3h13.7l1.9,9.3l8.1,27.9     L35.5-84.3z M20.7-102.2l-5.7-19.9l-5.4,19.9L20.7-102.2z"></path>		</g>	</g></g>
  <g>	<g transform="translate(241.092916, 240.135228)">		<g>			<path class="st1" d="M10.2-93.6v-28.2l-0.6-9h10.2l-0.6,9v28.2l0.6,9.3H9.6L10.2-93.6z"></path>		</g>	</g></g>
  <g>	<g transform="translate(254.312073, 240.135228)">		<g>			<path class="st1" d="M47.6-93.6l0.6,9.3H34.1l-11.9-36.8v27.4l0.6,9.3H14l0.6-9.3v-28.2l-0.6-9h14.1l11.8,36.5v-27.5l-0.6-9h8.9     l-0.6,9V-93.6z"></path>		</g>	</g></g>
  <g>	<g transform="translate(285.591181, 240.135228)">		<g>			<path class="st1" d="M38.4-83.6c-2.8,0-5.4-0.5-8-1.5s-4.7-2.5-6.6-4.4l-1.3-8.8l0.9-0.3c2.3,2,4.7,3.5,7,4.6     c2.4,1.1,4.6,1.6,6.8,1.6c2.6,0,4.6-0.4,6.1-1.2c1.4-0.8,2.1-2,2.1-3.5c0-1.4-0.7-2.5-2-3.4c-1.3-0.9-3.8-1.9-7.2-2.9     c-3.3-0.9-5.8-2-7.7-3.1c-1.9-1.2-3.2-2.6-4-4.4c-0.8-1.7-1.2-4-1.2-6.8c0-4.3,1.4-7.7,4.3-10.2c2.8-2.4,6.6-3.7,11.2-3.7     c2.8,0,5.5,0.4,8.1,1.3c2.6,0.9,4.7,2,6.3,3.5l-1.4,8.4l-0.9,0.2c-0.9-1.4-2.4-2.5-4.5-3.3c-2.1-0.9-4.4-1.3-6.8-1.3     c-2.2,0-4,0.4-5.2,1.2c-1.2,0.8-1.8,1.9-1.8,3.5c0,1.6,0.6,2.8,1.8,3.6c1.2,0.8,3.3,1.7,6.4,2.6c3.6,1,6.3,2.1,8.3,3.2     c2,1.1,3.4,2.6,4.3,4.3c0.9,1.7,1.4,3.9,1.4,6.5c0,4.5-1.5,8-4.5,10.5C47.3-84.9,43.3-83.6,38.4-83.6z"></path>		</g>	</g></g>
  <path class="st2" d="M260.4,54.2l20.2-51"></path>
  <path class="st2" d="M238.7,24.6l21.4,29.7"></path>
  <path class="st2" d="M213.1,71.3l25.5-47"></path>
  <path class="st3" d="M281.9,26.9l-6.4,6.4"></path>
  <path class="st3" d="M271.4,27.2l5,5"></path>
  <path class="st3" d="M290.7,26.9l-6.4,6.4"></path>
  <path class="st3" d="M280.2,27.2l5,5"></path>
  <path class="st4" d="M280.8,3.6l26.4,67.5"></path>
  <g>	<g transform="translate(53.851364, 199.964459)">		<g>			<path class="st1" d="M-53.2-104.9v-21.8l-0.5-6.9h7.8l-0.5,6.9v8.4l5.3-8.4l3.6-6.9h10.3l-5.9,6.9l-6.3,9.9l8.3,11.8l5.7,7.2     h-10.5l-3.8-7.2l-4.4-6.6l-2.4,1.2v5.4l0.5,7.2h-7.8L-53.2-104.9z"></path>		</g>	</g></g>
  <g>	<g transform="translate(76.654314, 199.964459)">		<g>			<path class="st1" d="M-45.6-104.9v-21.8l-0.5-6.9h7.8l-0.5,6.9v21.8l0.5,7.2h-7.8L-45.6-104.9z"></path>		</g>	</g></g>
  <g>	<g transform="translate(86.836759, 199.964459)">		<g>			<path class="st1" d="M-16.8-104.9l0.5,7.2h-10.9l-9.1-28.3v21.1l0.5,7.2h-6.9l0.5-7.2v-21.8l-0.5-6.9h10.9l9.1,28.2v-21.2     l-0.5-6.9h6.9l-0.5,6.9V-104.9z"></path>		</g>	</g></g>
  <g>	<g transform="translate(110.930446, 199.964459)">		<g>			<path class="st1" d="M-35.7-115.8c0-6.3,1.2-11,3.5-14c2.3-3,6.2-4.5,11.5-4.5c1.7,0,3.4,0.3,5.2,0.9c1.8,0.6,3.4,1.5,5,2.7     l-1.1,6.1l-1,0.4c-0.9-1-2-1.8-3.5-2.4c-1.5-0.6-3-0.9-4.7-0.9c-1.9,0-3.5,0.4-4.6,1.2c-1.1,0.8-1.9,2-2.4,3.7     c-0.5,1.7-0.8,4-0.8,6.9c0,3.1,0.2,5.5,0.6,7.3c0.4,1.7,1.1,3,2.1,3.7c1,0.8,2.3,1.1,4,1.1c2.2,0,3.7-0.6,4.7-1.9     c1-1.3,1.5-3.3,1.5-6.1h-6.9v-6.6h13.6v20.6h-3.8l-1.2-3.6c-0.8,1.3-2,2.3-3.6,3.1c-1.6,0.8-3.1,1.2-4.8,1.2     c-3.1,0-5.7-0.7-7.6-2s-3.4-3.3-4.4-6.1C-35.3-107.7-35.7-111.3-35.7-115.8z"></path>		</g>	</g></g>
  <g>	<g transform="translate(134.020224, 199.964459)">	</g></g>
  <g>	<g transform="translate(141.190962, 199.964459)">		<g>			<path class="st1" d="M-12.7-96.9c-4.7,0-8.1-1.6-10.5-4.8c-2.3-3.2-3.5-7.9-3.5-14c0-6.1,1.2-10.7,3.5-13.8     c2.3-3.1,5.8-4.7,10.5-4.7c4.7,0,8.2,1.6,10.5,4.7c2.3,3.1,3.5,7.8,3.5,13.8c0,6.2-1.2,10.8-3.5,14C-4.5-98.5-8-96.9-12.7-96.9z      M-12.7-103.7c1.7,0,3.1-0.4,4-1.1c1-0.8,1.7-2,2.1-3.7c0.4-1.7,0.6-4.2,0.6-7.3c0-3-0.2-5.3-0.6-7c-0.4-1.7-1.1-2.9-2.1-3.6     c-1-0.8-2.3-1.1-4-1.1c-1.7,0-3,0.4-4,1.1c-1,0.7-1.7,2-2.1,3.6c-0.4,1.7-0.6,4-0.6,7c0,3.1,0.2,5.5,0.6,7.3     c0.4,1.7,1.1,3,2.1,3.7C-15.8-104-14.4-103.7-12.7-103.7z"></path>		</g>	</g></g>
  <g>	<g transform="translate(164.854397, 199.964459)">		<g>			<path class="st1" d="M-10.3-127v7.5h12l-1,6.6h-11v8l0.5,7.2h-7.8l0.5-7.2v-21.8l-0.5-6.9H4.1L3-127H-10.3z"></path>		</g>	</g></g>
  <path class="st5" d="M236.8,52.1c2.9,3.9,5,8.5,5.7,13.6c2.3,16.1-8.8,31.1-25,33.4c-16.1,2.3-31.1-8.8-33.4-25  c-2.3-16.1,8.8-31.1,25-33.4c2.4-0.4,4.9-0.4,7.2-0.2"></path>
  <path class="st5" d="M308.3,40.5c4.8,0.2,9.7,1.5,14.2,4.2c14,8.4,18.5,26.5,10.1,40.5s-26.5,18.5-40.5,10.1  c-14-8.4-18.5-26.5-10.1-40.5c1.3-2.1,2.8-4,4.4-5.7"></path>
</svg>
